<svg xmlns="http://www.w3.org/2000/svg" xmlns:xlink="http://www.w3.org/1999/xlink" width="15.147" height="15.129" viewBox="0 0 15.147 15.129">
  <defs>
    <linearGradient id="linear-gradient" x1="0.5" x2="0.5" y2="1" gradientUnits="objectBoundingBox">
      <stop offset="0" stop-color="#3ecde2"/>
      <stop offset="1" stop-color="#2092db"/>
    </linearGradient>
  </defs>
  <path id="Path_466" data-name="Path 466" d="M708.116,381.306l-5.289-5.289a.481.481,0,0,0-.678,0l-5.306,5.306c-.186.186-.346.357-.368.379a2.23,2.23,0,0,0-.029.519v4.753a.477.477,0,0,0,.457.5h3.084a.488.488,0,0,0,.471-.5V382.76a.458.458,0,0,1,.487-.443h3.084a.458.458,0,0,1,.487.443v4.214a.488.488,0,0,0,.471.5h3.085a.477.477,0,0,0,.457-.5v-4.753a1.915,1.915,0,0,0-.038-.528C708.466,381.667,708.3,381.492,708.116,381.306Zm-2.49-7.033,1.677,1.7c.186.186.315.123.315-.14v-2.668a.48.48,0,0,0-.437-.516h-1.42c-.338,0-.469.134-.469.516v.29c0,.5.015.5.334.819Zm4.318,5.341-7.117-7.129a.48.48,0,0,0-.678,0l-7.072,7.072a.48.48,0,0,0,0,.678l.584.584a.481.481,0,0,0,.678,0l5.81-5.81a.481.481,0,0,1,.678,0l5.856,5.868a.481.481,0,0,0,.678,0l.583-.584a.481.481,0,0,0,0-.679Z" transform="translate(-694.937 -372.345)" fill="url(#linear-gradient)"/>
</svg>
